<?xml version="1.0" encoding="utf-8"?>
<?xml-stylesheet type="text/xsl" href="rss1.xsl"?>
<rss version="2.0" xmlns:atom="http://www.w3.org/2005/Atom" xmlns:content="http://purl.org/rss/1.0/modules/content/" xmlns:dc="http://purl.org/dc/elements/1.1/" xmlns:media="http://search.yahoo.com/mrss/">
<channel>
 <title>Getty</title>
 <link>http://www.gettyimg.com/</link>
 <atom:link href="http://www.gettyimg.com/" rel="self" type="application/rss+xml" />

 
                <item>
                <title><![CDATA[【Music Videos】Kanye West ft. Jamie Foxx - Gold Digger SD (Extended) (vjstreet Pool)]]></title>
                <link><![CDATA[https://sharemania.us/threads/kanye-west-ft-jamie-foxx-gold-digger-sd-extended-vjstreet-pool.222777/]]></link>
                <description><![CDATA[<article>
<blockquote class="messageText SelectQuoteContainer ugc baseHtml">
<img src="https://i.imgur.com/IPwCm3r.jpg" class="bbCodeImage LbImage" alt="[​IMG]" data-url="https://i.imgur.com/IPwCm3r.jpg" style=""> <img src="https://i.imgur.com/1A5R8uo.jpg" class="bbCodeImage LbImage" alt="[​IMG]" data-url="https://i.imgur.com/1A5R8uo.jpg" style=""> <br>
<span style="font-size: 18px"><b>Kanye West ft. Jamie Foxx - Gold Digger</b></span><br>
BPM:92<br>
File size:108.68 Mb<br>
Video format:H264<br>
Video codec:ffh264<br>
Code:C54333<br>
Video bitrate:4019104<br>
Size:640x360<br>
Length:03:27<br>
FPS:23.9760<br>
Audio format:MP4A<br>
Audio codec:ffaac<br>
Audio bitrate:317584<br>
Audio samplerate:44100<br>
Ripped From <a href="https://www.vjstreet.com/" target="_blank" class="externalLink" rel="nofollow">vjstreet</a><br>
<b><br>
[/URL]
<div class="bbCodeBlock bbCodeVfcHH HiddenContent">
<div class="attribution type">Hidden Content:</div>
<blockquote>You must reply before you can see the hidden data contained here.</blockquote>
</div></b>
<div class="messageTextEndMarker">&nbsp;</div>
</blockquote>
</article>]]></description>
                <author><![CDATA[gamerfronts]]></author>
                </item>

                
                <item>
                <title><![CDATA[【VEVO】WEB-RiP - Linkin Park - Somewhere I Belong - (2023 Remaster) - 1080P]]></title>
                <link><![CDATA[https://sharemania.us/threads/linkin-park-somewhere-i-belong-2023-remaster-1080p.222776/]]></link>
                <description><![CDATA[<article>
<blockquote class="messageText SelectQuoteContainer ugc baseHtml">
<img src="https://i.imgur.com/SFMbLaE.png" class="bbCodeImage LbImage" alt="[​IMG]" data-url="https://i.imgur.com/SFMbLaE.png" style=""> <br>
<div class="ToggleTriggerAnchor bbCodeSpoilerContainer">
<button type="button" class="button bbCodeSpoilerButton ToggleTrigger Tooltip JsOnly" data-target="> .SpoilerTarget"><span>Spoiler: <span class="SpoilerTitle">MEDIAINFO</span></span></button>
<div class="SpoilerTarget bbCodeSpoilerText">
<div class="bbCodeBlock bbCodeCode">
<div class="type">Code:</div>
<pre>General
Format                         : MPEG-4
Format profile                 : Base Media
Codec ID                       : isom (isom/iso2/avc1/mp41)
File size                      : 135 MiB
Duration                       : 3 min 45 s
Overall bit rate mode          : Variable
Overall bit rate               : 4 999 kb/s
Movie name                     : Linkin Park - Somewhere I Belong
Writing application            : Lavf60.5.100

Video
ID                             : 1
Format                         : AVC
Format/Info                    : Advanced Video Codec
Format profile                 : Main@L3.1
Format settings                : CABAC / 4 Ref Frames
Format settings, CABAC         : Yes
Format settings, Reference fra : 4 frames
Codec ID                       : avc1
Codec ID/Info                  : Advanced Video Coding
Duration                       : 3 min 45 s
Source duration                : 3 min 45 s
Bit rate                       : 4 868 kb/s
Width                          : 1 920 pixels
Height                         : 1 080 pixels
Display aspect ratio           : 16:9
Frame rate mode                : Variable
Frame rate                     : 23.976 (24000/1001) FPS
Minimum frame rate             : 23.974 FPS
Maximum frame rate             : 23.981 FPS
Color space                    : YUV
Chroma subsampling             : 4:2:0
Bit depth                      : 8 bits
Scan type                      : Progressive
Bits/(Pixel*Frame)             : 0.098
Stream size                    : 131 MiB (97%)
Source stream size             : 131 MiB (97%)
Writing library                : x264 core 157 r2965 861cec4
Encoding settings              : cabac=1 / ref=3 / deblock=1:0:0 / analyse=0x1:0x131 / me=umh / subme=10 / psy=1 / psy_rd=0.80:0.00 / mixed_ref=1 / me_range=24 / chroma_me=1 / trellis=2 / 8x8dct=0 / cqm=0 / deadzone=21,11 / fast_pskip=1 / chroma_qp_offset=-2 / threads=8 / lookahead_threads=1 / sliced_threads=0 / nr=0 / decimate=1 / interlaced=0 / bluray_compat=0 / constrained_intra=0 / bframes=3 / b_pyramid=2 / b_adapt=1 / b_bias=0 / direct=1 / weightb=1 / open_gop=0 / weightp=2 / keyint=125 / keyint_min=10 / scenecut=40 / intra_refresh=0 / rc_lookahead=60 / rc=crf / mbtree=1 / crf=22.0 / qcomp=0.65 / qpmin=0 / qpmax=69 / qpstep=4 / vbv_maxrate=5200 / vbv_bufsize=5200 / crf_max=0.0 / nal_hrd=none / filler=0 / ip_ratio=1.40 / aq=1:1.05
mdhd_Duration                  : 225767
Codec configuration box        : avcC

Audio
ID                             : 2
Format                         : AAC LC
Format/Info                    : Advanced Audio Codec Low Complexity
Codec ID                       : mp4a-40-2
Duration                       : 3 min 45 s
Bit rate mode                  : Variable
Bit rate                       : 126 kb/s
Maximum bit rate               : 129 kb/s
Channel(s)                     : 2 channels
Channel layout                 : L R
Sampling rate                  : 44.1 kHz
Frame rate                     : 43.066 FPS (1024 SPF)
Compression mode               : Lossy
Stream size                    : 3.38 MiB (3%)
Default                        : Yes
Alternate group                : 1
</pre>
</div></div>
</div>
<div class="bbCodeBlock bbCodeVfcHH HiddenContent">
<div class="attribution type">Hidden Content:</div>
<blockquote>You must reply before you can see the hidden data contained here.</blockquote>
</div>
<div class="messageTextEndMarker">&nbsp;</div>
</blockquote>
</article>]]></description>
                <author><![CDATA[Matheus10]]></author>
                </item>

                
                <item>
                <title><![CDATA[【VEVO】WEB-RiP - Linkin Park - Numb - (2023 Remaster) - 1080P]]></title>
                <link><![CDATA[https://sharemania.us/threads/linkin-park-numb-2023-remaster-1080p.222775/]]></link>
                <description><![CDATA[<article>
<blockquote class="messageText SelectQuoteContainer ugc baseHtml">
<img src="https://i.imgur.com/TQGcGq5.png" class="bbCodeImage LbImage" alt="[​IMG]" data-url="https://i.imgur.com/TQGcGq5.png" style=""> <br>
<div class="ToggleTriggerAnchor bbCodeSpoilerContainer">
<button type="button" class="button bbCodeSpoilerButton ToggleTrigger Tooltip JsOnly" data-target="> .SpoilerTarget"><span>Spoiler: <span class="SpoilerTitle">MEDIAINFO</span></span></button>
<div class="SpoilerTarget bbCodeSpoilerText">
<div class="bbCodeBlock bbCodeCode">
<div class="type">Code:</div>
<pre>General
Format                         : MPEG-4
Format profile                 : Base Media
Codec ID                       : isom (isom/iso2/avc1/mp41)
File size                      : 108 MiB
Duration                       : 3 min 7 s
Overall bit rate mode          : Variable
Overall bit rate               : 4 852 kb/s
Movie name                     : Linkin Park - Numb
Writing application            : Lavf60.5.100

Video
ID                             : 1
Format                         : AVC
Format/Info                    : Advanced Video Codec
Format profile                 : Main@L3.1
Format settings                : CABAC / 4 Ref Frames
Format settings, CABAC         : Yes
Format settings, Reference fra : 4 frames
Codec ID                       : avc1
Codec ID/Info                  : Advanced Video Coding
Duration                       : 3 min 7 s
Source duration                : 3 min 7 s
Bit rate                       : 4 721 kb/s
Width                          : 1 920 pixels
Height                         : 1 080 pixels
Display aspect ratio           : 16:9
Frame rate mode                : Variable
Frame rate                     : 23.976 (24000/1001) FPS
Minimum frame rate             : 23.974 FPS
Maximum frame rate             : 23.981 FPS
Color space                    : YUV
Chroma subsampling             : 4:2:0
Bit depth                      : 8 bits
Scan type                      : Progressive
Bits/(Pixel*Frame)             : 0.095
Stream size                    : 105 MiB (97%)
Source stream size             : 105 MiB (97%)
Writing library                : x264 core 157 r2965 861cec4
Encoding settings              : cabac=1 / ref=3 / deblock=1:0:0 / analyse=0x1:0x131 / me=umh / subme=10 / psy=1 / psy_rd=0.80:0.00 / mixed_ref=1 / me_range=24 / chroma_me=1 / trellis=2 / 8x8dct=0 / cqm=0 / deadzone=21,11 / fast_pskip=1 / chroma_qp_offset=-2 / threads=8 / lookahead_threads=1 / sliced_threads=0 / nr=0 / decimate=1 / interlaced=0 / bluray_compat=0 / constrained_intra=0 / bframes=3 / b_pyramid=2 / b_adapt=1 / b_bias=0 / direct=1 / weightb=1 / open_gop=0 / weightp=2 / keyint=125 / keyint_min=10 / scenecut=40 / intra_refresh=0 / rc_lookahead=60 / rc=crf / mbtree=1 / crf=22.0 / qcomp=0.65 / qpmin=0 / qpmax=69 / qpstep=4 / vbv_maxrate=5200 / vbv_bufsize=5200 / crf_max=0.0 / nal_hrd=none / filler=0 / ip_ratio=1.40 / aq=1:1.05
Codec configuration box        : avcC

Audio
ID                             : 2
Format                         : AAC LC
Format/Info                    : Advanced Audio Codec Low Complexity
Codec ID                       : mp4a-40-2
Duration                       : 3 min 7 s
Bit rate mode                  : Variable
Bit rate                       : 126 kb/s
Maximum bit rate               : 129 kb/s
Channel(s)                     : 2 channels
Channel layout                 : L R
Sampling rate                  : 44.1 kHz
Frame rate                     : 43.066 FPS (1024 SPF)
Compression mode               : Lossy
Stream size                    : 2.80 MiB (3%)
Default                        : Yes
Alternate group                : 1
</pre>
</div></div>
</div>
<div class="bbCodeBlock bbCodeVfcHH HiddenContent">
<div class="attribution type">Hidden Content:</div>
<blockquote>You must reply before you can see the hidden data contained here.</blockquote>
</div>
<div class="messageTextEndMarker">&nbsp;</div>
</blockquote>
</article>]]></description>
                <author><![CDATA[Matheus10]]></author>
                </item>

                </channel></rss>